M48
; DRILL file {KiCad 8.0.2} date 2025-10-27T12:50:22-0600
; FORMAT={-:-/ absolute / metric / decimal}
; #@! TF.CreationDate,2025-10-27T12:50:22-06:00
; #@! TF.GenerationSoftware,Kicad,Pcbnew,8.0.2
; #@! TF.FileFunction,MixedPlating,1,2
FMAT,2
METRIC
; #@! TA.AperFunction,Plated,PTH,ViaDrill
T1C0.300
; #@! TA.AperFunction,Plated,PTH,ComponentDrill
T2C0.600
; #@! TA.AperFunction,Plated,PTH,ComponentDrill
T3C0.800
; #@! TA.AperFunction,Plated,PTH,ComponentDrill
T4C0.890
; #@! TA.AperFunction,Plated,PTH,ComponentDrill
T5C1.000
; #@! TA.AperFunction,Plated,PTH,ComponentDrill
T6C1.100
; #@! TA.AperFunction,Plated,PTH,ComponentDrill
T7C3.200
; #@! TA.AperFunction,NonPlated,NPTH,ComponentDrill
T8C0.650
; #@! TA.AperFunction,NonPlated,NPTH,ComponentDrill
T9C2.200
%
G90
G05
T1
X145.0Y-140.5
X145.5Y-134.0
X148.5Y-132.0
X150.0Y-122.0
X151.0Y-131.15
X152.0Y-124.0
X152.124Y-126.462
X153.0Y-113.0
X153.5Y-110.5
X153.5Y-131.65
X154.5Y-124.0
X155.875Y-132.15
X157.931Y-132.65
X158.75Y-132.75
X159.5Y-126.15
X159.525Y-110.5
X159.525Y-112.5
X160.204Y-128.03
X160.5Y-123.0
X161.0Y-127.95
X161.0Y-133.5
X161.0Y-136.5
X161.35Y-123.65
X162.0Y-122.3
X163.0Y-115.0
X164.0Y-107.5
X165.0Y-115.0
X165.0Y-119.5
X165.7Y-125.8
X165.767Y-119.273
X166.125Y-115.0
X166.15Y-123.0
X166.378Y-118.622
X166.525Y-114.307
X166.95Y-109.0
X167.0Y-106.0
X167.0Y-107.5
X167.044Y-118.178
X167.23Y-136.5
X167.5Y-98.0
X167.5Y-114.35
X167.75Y-108.15
X168.266Y-133.178
X168.4Y-118.055
X168.5Y-108.5
X168.5Y-125.0
X168.85Y-106.0
X168.85Y-113.5
X169.0Y-117.5
X169.209Y-133.155
X169.482Y-118.982
X169.5Y-112.5
X169.5Y-115.0
X169.566Y-118.15
X169.725Y-133.766
X169.963Y-136.0
X169.975Y-123.325
X170.15Y-107.5
X170.85Y-126.0
X170.85Y-128.0
X171.0Y-116.525
X171.135Y-99.365
X171.152Y-130.571
X171.35Y-118.2
X171.5Y-106.5
X171.581Y-119.5
X172.0Y-130.5
X172.037Y-136.0
X172.5Y-119.5
X172.65Y-131.066
X173.5Y-129.0
X175.5Y-123.15
X176.5Y-105.5
X176.7Y-116.15
X177.5Y-134.5
X178.5Y-121.462
X179.0Y-109.85
X179.0Y-116.15
X180.0Y-119.5
X181.0Y-107.5
X181.319Y-133.681
X181.5Y-125.0
X182.925Y-137.075
X183.5Y-116.5
X183.5Y-121.5
X183.5Y-124.0
X183.5Y-126.5
X184.0Y-113.0
X184.15Y-133.65
X185.5Y-124.0
X186.5Y-133.0
X187.5Y-99.0
X188.5Y-120.0
X188.5Y-128.0
X189.0Y-132.15
X191.5Y-131.5
X194.0Y-130.65
T3
X152.92Y-119.0
X155.46Y-119.0
X158.0Y-119.0
X162.5Y-111.0
X164.5Y-111.0
T4
X142.5Y-113.0
X142.5Y-118.0
T5
X142.5Y-135.42
X142.5Y-137.96
X142.5Y-140.5
X148.26Y-140.5
X150.8Y-140.5
X151.0Y-107.5
X153.34Y-140.5
X155.0Y-107.5
X155.88Y-140.5
X158.42Y-140.5
X159.0Y-107.5
X160.96Y-140.5
X163.5Y-140.5
X167.96Y-140.5
X168.88Y-102.0
X170.5Y-140.5
X171.42Y-102.0
X173.04Y-140.5
X173.96Y-102.0
X175.58Y-140.5
X176.5Y-102.0
X179.42Y-140.5
X181.96Y-140.5
X184.5Y-140.5
X187.04Y-140.5
X189.58Y-140.5
X192.12Y-140.5
T6
X139.75Y-125.25
X139.75Y-129.75
X146.25Y-125.25
X146.25Y-129.75
X154.52Y-99.77
X155.89Y-97.23
X157.26Y-99.77
X158.63Y-97.23
X160.0Y-99.77
T7
X150.4Y-98.5
X164.12Y-98.5
T8
X195.895Y-121.11
X195.895Y-126.89
T9
X138.0Y-97.5
X138.0Y-140.5
X199.0Y-97.5
X199.0Y-140.5
T2
G00X194.845Y-119.68
M15
G01X195.945Y-119.68
M16
G05
G00X194.845Y-128.32
M15
G01X195.945Y-128.32
M16
G05
G00X199.175Y-119.68
M15
G01X199.975Y-119.68
M16
G05
G00X199.175Y-128.32
M15
G01X199.975Y-128.32
M16
G05
M30
